<?xml version="1.0"?>
<svg xmlns="http://www.w3.org/2000/svg" xmlns:xlink="http://www.w3.org/1999/xlink" xmlns:svgjs="http://svgjs.com/svgjs" version="1.1" width="512" height="512" x="0" y="0" viewBox="0 0 24 24" style="enable-background:new 0 0 512 512" xml:space="preserve" class=""><g><g xmlns="http://www.w3.org/2000/svg"><path d="m12 23c-3.479 0-6.648-1.759-8.485-4.705-.011-.014-.021-.028-.029-.041-.227-.365-.437-.765-.642-1.219-.561-1.287-.844-2.642-.844-4.035-.015-.063-.5-3.312-.5-5 0-4.827 4.291-5.418 5.293-5.49.535-.477 2.471-2.01 5.207-2.01 4.36 0 10.5 2.327 10.5 7.5 0 1.657-.485 4.935-.505 5.073.005 1.315-.277 2.674-.835 3.965-.223.491-.467.94-.73 1.345-.019.029-.041.057-.066.081-1.78 2.812-4.928 4.536-8.364 4.536zm-7.684-5.304c.011.014.021.027.029.041 1.651 2.669 4.512 4.263 7.655 4.263 3.092 0 5.925-1.551 7.578-4.148.02-.03.042-.06.068-.085.18-.291.4-.696.599-1.134.5-1.156.755-2.382.755-3.633.01-.106.5-3.416.5-5 0-4.483-5.555-6.5-9.5-6.5-2.761 0-4.628 1.835-4.646 1.854-.094.093-.221.145-.353.146-.184.001-4.501.07-4.501 4.5 0 1.614.49 4.893.495 4.926.005 1.328.26 2.55.764 3.704.177.396.361.747.557 1.066z" fill="#d47414" data-original="#000000" style="" class=""/></g><g xmlns="http://www.w3.org/2000/svg"><path d="m21.288 15.5c-.217 0-.417-.143-.48-.362l-1.185-4.14c-7.234-.06-10.164-1.862-11.33-3.121-.755 1.94-3.066 2.786-3.89 3.031l-1.21 4.229c-.076.267-.354.421-.618.343-.265-.076-.419-.353-.343-.618l1.288-4.5c.049-.174.19-.308.366-.349.037-.009 3.649-.891 3.649-3.454 0-.253.189-.466.44-.496.252-.037.485.131.546.377.008.027 1.138 3.56 11.479 3.56.223 0 .419.147.48.362l1.288 4.5c.076.266-.078.542-.343.618-.045.014-.092.02-.137.02z" fill="#d47414" data-original="#000000" style="" class=""/></g><g xmlns="http://www.w3.org/2000/svg"><path d="m21.48 16c-.116 0-.233-.011-.349-.021-.275-.027-.476-.272-.449-.547.027-.274.268-.463.546-.449.084.008.168.017.252.017.827 0 1.5-.673 1.5-1.5 0-.762-.567-1.403-1.319-1.494-.274-.032-.47-.281-.437-.556.033-.273.284-.476.556-.437 1.254.15 2.2 1.22 2.2 2.486 0 1.38-1.122 2.501-2.5 2.501z" fill="#d47414" data-original="#000000" style="" class=""/></g><g xmlns="http://www.w3.org/2000/svg"><path d="m2.5 16c-1.378 0-2.5-1.121-2.5-2.5 0-1.278.957-2.348 2.225-2.487.282-.024.521.168.552.442s-.168.521-.442.552c-.749.082-1.335.738-1.335 1.493 0 .827.673 1.5 1.5 1.5.08 0 .155-.007.219-.02.269-.062.535.119.59.389.056.271-.119.534-.389.59-.13.027-.272.041-.42.041z" fill="#d47414" data-original="#000000" style="" class=""/></g><g xmlns="http://www.w3.org/2000/svg"><path d="m8 15c-.827 0-1.5-.673-1.5-1.5s.673-1.5 1.5-1.5 1.5.673 1.5 1.5-.673 1.5-1.5 1.5zm0-2c-.276 0-.5.225-.5.5s.224.5.5.5.5-.225.5-.5-.224-.5-.5-.5z" fill="#d47414" data-original="#000000" style="" class=""/></g><g xmlns="http://www.w3.org/2000/svg"><path d="m16 15c-.827 0-1.5-.673-1.5-1.5s.673-1.5 1.5-1.5 1.5.673 1.5 1.5-.673 1.5-1.5 1.5zm0-2c-.276 0-.5.225-.5.5s.224.5.5.5.5-.225.5-.5-.224-.5-.5-.5z" fill="#d47414" data-original="#000000" style="" class=""/></g><g xmlns="http://www.w3.org/2000/svg"><path d="m12 19.023c-1.024 0-2.049-.39-2.829-1.17-.195-.195-.195-.512 0-.707s.512-.195.707 0c1.17 1.17 3.073 1.17 4.243 0 .195-.195.512-.195.707 0s.195.512 0 .707c-.779.781-1.804 1.17-2.828 1.17z" fill="#d47414" data-original="#000000" style="" class=""/></g></g></svg>
