<?xml version="1.0"?>
<svg xmlns="http://www.w3.org/2000/svg" xmlns:xlink="http://www.w3.org/1999/xlink" xmlns:svgjs="http://svgjs.com/svgjs" version="1.1" width="512" height="512" x="0" y="0" viewBox="0 0 512 512" style="enable-background:new 0 0 512 512" xml:space="preserve" class=""><g><g xmlns="http://www.w3.org/2000/svg"><path d="m482.124 84.306h-83.729c-13.34 0-25.581 6.718-32.744 17.97l-29.487 46.315h-309.305c-14.81 0-26.859 12.049-26.859 26.86v178.715c0 14.811 12.049 26.86 26.859 26.86h11.36v23.91c0 12.549 10.21 22.759 22.76 22.759h38.069c9.035 0 17.217-5.347 20.845-13.621l14.488-33.047h41.129c4.143 0 7.5-3.358 7.5-7.5s-3.357-7.5-7.5-7.5h-148.651c-6.539 0-11.859-5.32-11.859-11.86v-178.716c0-6.54 5.32-11.86 11.859-11.86h470.141v190.575c0 6.54-5.32 11.86-11.859 11.86h-273.801c-4.143 0-7.5 3.358-7.5 7.5s3.357 7.5 7.5 7.5h166.278l14.488 33.048c3.628 8.274 11.81 13.621 20.845 13.621h38.069c12.55 0 22.76-10.209 22.76-22.759v-23.91h11.36c14.811 0 26.859-12.049 26.859-26.86v-239.984c.001-16.474-13.401-29.876-29.875-29.876zm-364.121 296.72-11.848 27.024c-1.236 2.821-4.026 4.644-7.106 4.644h-38.07c-4.278 0-7.76-3.48-7.76-7.759v-23.91h64.784zm340.777 23.91c0 4.278-3.481 7.759-7.76 7.759h-38.069c-3.08 0-5.87-1.823-7.106-4.644l-11.848-27.025h64.783zm-104.835-256.345 24.358-38.259c4.395-6.904 11.905-11.026 20.091-11.026h83.729c8.202 0 14.876 6.673 14.876 14.876v34.409z" fill="#d47414" data-original="#000000" style="" class=""/><path d="m462.638 117.437h-59.651c-4.143 0-7.5 3.358-7.5 7.5s3.357 7.5 7.5 7.5h59.651c4.143 0 7.5-3.358 7.5-7.5s-3.358-7.5-7.5-7.5z" fill="#d47414" data-original="#000000" style="" class=""/><path d="m340.436 292.6c11.483 0 20.826-9.343 20.826-20.826v-53.987c0-11.483-9.343-20.826-20.826-20.826h-45.196c-4.143 0-7.5 3.358-7.5 7.5s3.357 7.5 7.5 7.5h45.195c3.213 0 5.826 2.614 5.826 5.826v53.987c0 3.212-2.613 5.826-5.826 5.826h-168.871c-3.213 0-5.826-2.614-5.826-5.826v-53.987c0-3.212 2.613-5.826 5.826-5.826h88.521c4.143 0 7.5-3.358 7.5-7.5s-3.357-7.5-7.5-7.5h-88.521c-11.483 0-20.826 9.343-20.826 20.826v53.987c0 11.483 9.343 20.826 20.826 20.826z" fill="#d47414" data-original="#000000" style="" class=""/><path d="m375.02 319.438v15.575c0 8.74 7.11 15.851 15.851 15.851h67.06c8.74 0 15.851-7.11 15.851-15.851v-15.575c0-8.74-7.11-15.85-15.851-15.85h-67.06c-8.741 0-15.851 7.11-15.851 15.85zm15 0c0-.469.382-.85.851-.85h67.06c.469 0 .851.381.851.85v15.575c0 .469-.382.851-.851.851h-67.06c-.469 0-.851-.381-.851-.851z" fill="#d47414" data-original="#000000" style="" class=""/><path d="m80.335 180.797c-4.143 0-7.5 3.358-7.5 7.5v16.456c-20.65 3.57-36.41 21.601-36.41 43.256 0 24.212 19.698 43.91 43.91 43.91s43.91-19.698 43.91-43.91c0-21.654-15.76-39.685-36.41-43.256v-16.456c0-4.142-3.357-7.5-7.5-7.5zm28.91 67.212c0 15.941-12.969 28.91-28.91 28.91s-28.91-12.969-28.91-28.91 12.969-28.91 28.91-28.91 28.91 12.969 28.91 28.91z" fill="#d47414" data-original="#000000" style="" class=""/><path d="m439.165 188.297c0-4.142-3.357-7.5-7.5-7.5s-7.5 3.358-7.5 7.5v16.456c-20.65 3.57-36.41 21.601-36.41 43.256 0 24.212 19.698 43.91 43.91 43.91s43.91-19.698 43.91-43.91c0-8.023-2.187-15.876-6.318-22.702-.332-.551-.678-1.093-1.034-1.628-2.295-3.448-6.951-4.379-10.399-2.085-3.447 2.296-4.381 6.952-2.085 10.4.233.351.46.707.683 1.075 2.718 4.49 4.154 9.656 4.154 14.941 0 15.941-12.969 28.91-28.91 28.91s-28.91-12.969-28.91-28.91 12.969-28.91 28.91-28.91c4.143 0 7.5-3.358 7.5-7.5v-23.303z" fill="#d47414" data-original="#000000" style="" class=""/><circle cx="193.378" cy="327.226" r="7.392" fill="#d47414" data-original="#000000" style="" class=""/><circle cx="228.598" cy="327.226" r="7.392" fill="#d47414" data-original="#000000" style="" class=""/><circle cx="263.818" cy="327.226" r="7.392" fill="#d47414" data-original="#000000" style="" class=""/><circle cx="299.038" cy="327.226" r="7.392" fill="#d47414" data-original="#000000" style="" class=""/><path d="m277.37 222.425c-4.143 0-7.5 3.358-7.5 7.5v19.733h-78.492c-4.143 0-7.5 3.358-7.5 7.5s3.357 7.5 7.5 7.5h129.244c4.143 0 7.5-3.358 7.5-7.5s-3.357-7.5-7.5-7.5h-35.752v-19.733c0-4.142-3.357-7.5-7.5-7.5z" fill="#d47414" data-original="#000000" style="" class=""/><path d="m56.66 334.726h101.578c4.143 0 7.5-3.358 7.5-7.5s-3.357-7.5-7.5-7.5h-101.578c-4.143 0-7.5 3.358-7.5 7.5s3.358 7.5 7.5 7.5z" fill="#d47414" data-original="#000000" style="" class=""/><circle cx="80.335" cy="248.009" r="7.392" fill="#d47414" data-original="#000000" style="" class=""/><circle cx="431.665" cy="248.009" r="7.392" fill="#d47414" data-original="#000000" style="" class=""/></g></g></svg>
